<?xml version="1.0" standalone="no"?>
<!DOCTYPE svg PUBLIC "-//W3C//DTD SVG 20010904//EN"
 "http://www.w3.org/TR/2001/REC-SVG-20010904/DTD/svg10.dtd">
<svg version="1.0" xmlns="http://www.w3.org/2000/svg"
 width="194.000000pt" height="259.000000pt" viewBox="0 0 194.000000 259.000000"
 preserveAspectRatio="xMidYMid meet">
<metadata>
Created by potrace 1.16, written by Peter Selinger 2001-2019
</metadata>
<g transform="translate(0.000000,259.000000) scale(0.100000,-0.100000)"
fill="#000000" stroke="none">
<path d="M2 2358 c3 -199 5 -233 18 -234 8 -1 21 -2 29 -3 11 -1 10 -5 -5 -15
-10 -8 -16 -18 -12 -21 4 -4 14 0 22 8 13 12 20 13 41 4 14 -7 25 -18 25 -25
0 -6 4 -11 8 -10 5 2 133 -89 285 -202 l276 -205 0 -352 c1 -212 5 -353 10
-353 5 0 9 27 8 60 -1 34 2 60 8 60 6 0 3 5 -5 10 -13 9 -13 10 0 10 13 0 13
1 0 10 -13 9 -13 10 0 10 12 0 12 2 2 9 -11 6 -13 47 -11 189 3 213 8 264 29
269 13 4 13 3 0 -6 -13 -10 -13 -11 0 -11 10 0 11 -3 4 -8 -7 -4 -13 -18 -14
-32 -3 -38 0 -47 10 -25 l9 20 2 -20 c1 -11 5 0 9 25 l7 45 1 -52 c2 -61 10
-85 25 -76 5 3 7 1 3 -5 -3 -5 -3 -12 1 -15 8 -4 -4 -1 -37 10 -8 2 1 -5 20
-17 19 -12 27 -19 18 -16 -10 3 -18 1 -18 -4 0 -6 6 -10 13 -10 9 0 8 -3 -2
-9 -11 -7 -11 -9 0 -14 12 -4 11 -7 -1 -16 -13 -10 -13 -11 0 -11 13 0 13 -1
0 -10 -10 -6 -11 -10 -2 -10 6 0 12 -10 11 -22 0 -22 -1 -22 -9 -3 -8 19 -9
19 -9 -2 -1 -13 5 -23 12 -23 8 0 7 -4 -3 -10 -13 -9 -13 -10 0 -10 13 0 13
-1 0 -10 -10 -6 -11 -10 -2 -10 8 0 12 -17 12 -50 0 -42 -3 -48 -17 -43 -13 5
-15 2 -11 -15 4 -14 1 -22 -11 -25 -9 -2 0 -2 19 0 26 3 31 1 20 -6 -8 -6 -10
-11 -4 -11 6 0 10 -13 10 -29 0 -22 -4 -27 -17 -24 -9 3 -20 -1 -24 -8 -5 -8
-4 -10 3 -5 7 4 20 2 29 -4 17 -11 17 -11 0 -6 -11 4 -20 -1 -24 -12 -4 -9
-11 -20 -17 -24 -6 -4 -7 -10 -3 -15 5 -4 12 -1 17 7 5 8 12 11 17 7 4 -5 1
-13 -7 -18 -12 -8 -11 -9 5 -7 12 2 20 -3 20 -12 2 -25 -5 -31 -26 -20 -11 6
-17 16 -13 22 4 6 1 9 -7 6 -8 -3 -13 -10 -12 -16 2 -6 -4 -9 -13 -5 -11 4
-12 8 -4 13 8 5 7 9 -5 14 -9 3 -17 6 -18 6 -1 0 -3 -11 -3 -25 -1 -14 1 -23
5 -21 14 9 1 -87 -15 -105 -9 -10 -12 -19 -7 -19 6 0 13 -6 16 -13 3 -9 -6
-12 -28 -12 -29 0 -32 2 -23 18 11 21 11 22 -19 31 -14 5 -23 3 -23 -3 0 -6 8
-11 18 -12 11 0 12 -2 4 -6 -16 -6 -44 16 -35 30 4 6 1 7 -8 1 -20 -12 -39
-14 -39 -3 0 6 -4 7 -10 4 -17 -11 -50 -14 -50 -5 0 4 -3 17 -6 27 -5 16 -4
16 5 1 12 -18 91 -24 91 -7 0 5 -14 7 -30 4 -29 -5 -30 -5 -13 15 18 21 28 27
18 10 -4 -6 5 -10 21 -10 l27 0 -22 19 c-13 11 -30 17 -38 14 -10 -4 -14 -2
-10 4 9 14 -22 26 -37 15 -13 -9 -46 -8 -73 3 -10 4 -40 8 -68 9 -27 2 -55 4
-62 4 -15 2 -8 43 9 54 16 10 37 11 22 0 -13 -9 -26 -42 -16 -42 5 0 14 6 21
12 10 11 11 10 6 -4 -5 -13 -2 -18 10 -18 9 0 14 4 10 9 -7 12 13 24 45 29 13
2 27 6 30 9 3 3 -7 3 -23 1 -18 -4 -30 0 -36 9 -10 18 -113 24 -133 8 -16 -13
-21 -35 -8 -35 5 0 10 4 10 9 0 5 9 11 20 14 23 6 23 6 11 -26 -8 -20 -16 -24
-42 -23 -29 1 -57 26 -30 26 6 0 11 5 11 11 0 6 -5 7 -13 2 -6 -4 -16 -8 -20
-8 -5 0 -14 -11 -21 -24 -11 -19 -14 -21 -19 -7 -4 9 -2 16 4 16 6 0 6 7 -1
20 -13 24 -48 27 -56 5 -5 -13 -9 -13 -22 -3 -10 8 -13 8 -9 2 4 -7 -3 -14
-18 -18 -27 -7 -35 -40 -12 -50 9 -5 9 -7 0 -12 -9 -4 -12 -110 -13 -440 l0
-434 384 0 385 1 4 22 4 22 8 -22 c7 -22 10 -23 161 -22 90 0 154 4 154 10 0
5 -12 9 -27 9 -20 0 -24 3 -14 9 8 5 25 7 38 5 14 -3 22 -1 19 5 -4 5 9 6 31
0 21 -4 40 -5 43 0 14 20 84 4 102 -23 5 -7 77 -12 213 -14 l205 -3 -18 43
c-10 24 -17 52 -15 63 1 11 0 14 -3 7 -7 -15 -45 62 -65 128 -7 22 -18 45 -26
51 -8 7 -13 33 -13 65 0 30 -4 54 -8 54 -5 0 -10 8 -11 18 -5 49 -8 81 -10
122 -2 25 -5 37 -8 27 -2 -9 -9 -17 -14 -17 -6 0 -7 -4 -4 -10 3 -5 2 -18 -4
-27 -8 -15 -10 -12 -9 14 1 18 6 33 12 33 6 0 5 4 -3 9 -9 6 -14 24 -12 53 6
119 3 168 -13 183 -20 21 -21 45 -1 45 18 0 20 16 3 24 -9 3 -8 8 5 16 9 6 15
16 11 22 -4 6 -10 5 -15 -3 -7 -11 -9 -9 -10 6 -4 50 -3 60 6 67 6 5 5 8 -3 8
-7 0 -10 5 -7 10 8 13 8 350 1 358 -3 3 -6 21 -6 41 l1 36 24 -28 c14 -15 25
-39 25 -53 0 -13 4 -32 9 -42 6 -9 13 -30 16 -46 3 -15 8 -26 11 -24 13 13 46
188 56 296 1 7 7 11 14 8 7 -3 15 2 18 10 4 11 1 14 -13 9 -16 -5 -18 0 -16
42 3 69 15 223 20 256 3 16 1 26 -5 22 -12 -8 -10 256 3 273 6 8 6 12 0 12 -6
0 -13 26 -16 57 -5 44 -2 62 9 74 9 10 14 28 11 41 -4 20 -4 20 -6 -5 -2 -54
-20 -16 -19 40 1 31 -3 58 -8 60 -11 4 -6 65 6 73 4 3 5 20 3 38 l-5 32 -804
0 -804 0 2 -232z"/>
</g>
</svg>
